<svg xmlns="http://www.w3.org/2000/svg" viewBox="0 0 512 512" width="512" height="512">
  <title>Witch Clipboard</title>
  <defs>
    <linearGradient id="tile" x1="72" y1="48" x2="438" y2="470" gradientUnits="userSpaceOnUse">
      <stop offset="0" stop-color="#182535" />
      <stop offset="1" stop-color="#071018" />
    </linearGradient>
    <linearGradient id="accent" x1="176" y1="210" x2="338" y2="352" gradientUnits="userSpaceOnUse">
      <stop offset="0" stop-color="#67e8f9" />
      <stop offset="1" stop-color="#34d399" />
    </linearGradient>
    <filter id="shadow" x="-30%" y="-30%" width="160%" height="170%">
      <feDropShadow dx="0" dy="18" stdDeviation="18" flood-color="#000000" flood-opacity=".28" />
    </filter>
  </defs>

  <rect width="512" height="512" rx="118" fill="url(#tile)" />
  <rect x="14" y="14" width="484" height="484" rx="105" fill="none" stroke="#ffffff" stroke-opacity=".08" stroke-width="2" />

  <g filter="url(#shadow)">
    <rect x="120" y="108" width="272" height="318" rx="62" fill="#f8fafc" />
    <rect x="196" y="72" width="120" height="76" rx="30" fill="url(#accent)" />
    <rect x="224" y="94" width="64" height="18" rx="9" fill="#071018" fill-opacity=".72" />
  </g>

  <path
    d="M174 228 L211 342 L257 274 L301 342 L338 228"
    fill="none"
    stroke="url(#accent)"
    stroke-width="28"
    stroke-linecap="round"
    stroke-linejoin="round"
  />
  <path d="M338 190 L347 210 L367 219 L347 228 L338 248 L329 228 L309 219 L329 210 Z" fill="#22d3ee" />
</svg>
